<svg width="768" height="512" viewBox="0 0 768 512" fill="none" xmlns="http://www.w3.org/2000/svg">
  <rect width="768" height="512" fill="#F7F7F7"/>
  <path d="M140 360L322 318" stroke="#BEC7D9" stroke-width="5" stroke-linecap="round"/>
  <path d="M446 318L628 360" stroke="#BEC7D9" stroke-width="5" stroke-linecap="round"/>
  <path d="M322 318H446V138L384 110L322 138V318Z" fill="#8F9296" stroke="#43474B" stroke-width="4" stroke-linejoin="round"/>
  <path d="M322 138L384 110L446 138H322Z" fill="#4A4E53" stroke="#43474B" stroke-width="4" stroke-linejoin="round"/>
  <path d="M446 138H476V149" stroke="#43474B" stroke-width="4" stroke-linecap="round"/>
  <circle cx="384" cy="92" r="7" fill="#8F9296" stroke="#43474B" stroke-width="3"/>
  <path d="M256 138L276 150L256 162V138Z" fill="#4F9D77"/>
  <path d="M256 318L276 306L256 294V318Z" fill="#4F9D77"/>
  <line x1="258" y1="145" x2="258" y2="311" stroke="#4F9D77" stroke-width="4"/>
  <text x="142" y="237" fill="#4F9D77" font-family="Arial, sans-serif" font-size="34" font-weight="700">H = 500 мм</text>
  <path d="M322 402L302 390V414L322 402Z" fill="#D3942D"/>
  <path d="M446 402L466 390V414L446 402Z" fill="#D3942D"/>
  <line x1="315" y1="402" x2="453" y2="402" stroke="#D3942D" stroke-width="4"/>
  <text x="310" y="438" fill="#D3942D" font-family="Arial, sans-serif" font-size="34" font-weight="700">X = 380 мм</text>
  <path d="M470 138L516 166" stroke="#E04A3A" stroke-width="4" stroke-dasharray="8 8" stroke-linecap="round"/>
  <text x="534" y="160" fill="#E04A3A" font-family="Arial, sans-serif" font-size="34" font-weight="700">Y = 380 мм</text>
  <path d="M473 278C472 289 474 303 482 316C487 324 493 331 498 336" stroke="#8C4DDE" stroke-width="4" stroke-linecap="round"/>
  <text x="497" y="305" fill="#8C4DDE" font-family="Arial, sans-serif" font-size="34" font-weight="700">α = 30°</text>
</svg>
